<svg width="35" height="35" viewBox="0 0 35 35" fill="none" xmlns="http://www.w3.org/2000/svg">
<path d="M33.0218 24.6037C32.9874 24.3056 32.9277 24.013 32.8445 23.7294C32.7595 23.4332 32.6473 23.1478 32.5134 22.8733C32.4791 22.8006 32.4411 22.7297 32.4031 22.6607C31.8513 21.6537 30.9793 20.8303 29.8866 20.3505L28.3488 19.6743C27.3194 19.2217 26.5143 18.3983 26.0819 17.3586L23.0643 10.1099C22.46 8.65759 21.0055 7.78512 19.446 7.93599L17.8757 8.08867C17.19 8.15411 16.5568 7.71969 16.3705 7.05262L15.9146 5.4222C15.7716 4.91144 15.4225 4.47702 14.9575 4.22801C14.4926 3.97899 13.939 3.93173 13.4378 4.09714L11.8367 4.62971C10.4093 5.10411 9.25148 6.10745 8.57667 7.45613L8.12981 8.35041C7.91814 8.77392 7.66125 9.17562 7.36635 9.54642L7.11127 9.86814C6.95749 10.0608 6.97558 10.3407 7.15469 10.5116L8.39214 11.7021L9.90096 13.1544L10.6807 13.9051C11.3736 14.5704 12.3741 14.8103 13.2913 14.5286L13.9209 14.3359L12.9421 16.2099L12.6292 16.8097C12.4102 17.2296 12.3759 17.7312 12.5713 18.1638C12.8842 18.8509 13.6278 19.1853 14.3207 19.0054L15.4333 18.7146L16.2058 18.5128L17.2823 18.2202L17.1267 18.7328C16.9295 19.3853 17.1104 20.0833 17.6007 20.554C18.4853 21.4047 19.37 22.2553 20.2547 23.1042C20.5586 23.395 20.8608 23.6876 21.1647 23.9785C21.9281 24.7128 22.7658 25.0127 23.8187 25.0127H32.6564C32.8753 25.0127 33.0453 24.8218 33.02 24.6037H33.0218ZM22.8743 22.6607L19.2253 19.1544L19.5763 17.9966C19.7499 17.4222 19.5998 16.7988 19.1837 16.368C18.7676 15.9372 18.1507 15.7664 17.5753 15.9227L16.0756 16.3317L15.6667 16.4425L15.1565 16.5752L15.5563 15.81L16.8607 13.3126C17.0833 12.8872 17.029 12.3747 16.725 12.0039C16.4193 11.6349 15.929 11.4858 15.4713 11.6258L12.6708 12.4837C12.488 12.5401 12.2908 12.491 12.1533 12.3601L11.3881 11.624L9.71643 9.94448L10.4799 8.41766C10.8996 7.57973 11.6196 6.95628 12.5061 6.66001L13.9191 6.19106L14.3207 7.63063C14.7549 9.18289 16.1588 10.2353 17.7364 10.2335C17.8503 10.2335 17.9661 10.228 18.0819 10.2171L19.6522 10.0644C20.2764 10.0026 20.8571 10.3534 21.0996 10.9333L21.6224 12.1874H19.9489C19.5075 12.1874 19.1511 12.5473 19.1511 12.989C19.1511 13.4307 19.5093 13.7906 19.9489 13.7906H22.2918L22.6681 14.694H21.1991C20.7576 14.694 20.4012 15.0539 20.4012 15.4955C20.4012 15.9372 20.7594 16.2971 21.1991 16.2971H23.3357L23.712 17.2005H22.4492C22.0077 17.2005 21.6513 17.5604 21.6513 18.0021C21.6513 18.4438 22.0096 18.8036 22.4492 18.8036H24.4211C25.1068 20.0578 26.1778 21.0466 27.4967 21.6264L29.0345 22.3044C29.2516 22.3989 29.4542 22.5171 29.6387 22.6552H22.8761L22.8743 22.6607Z" fill="white"/>
<path d="M32.7304 26.3904H31.2325C31.0642 26.3904 30.9249 26.5213 30.9141 26.6903C30.9068 26.8066 30.896 26.9211 30.8815 26.9757C30.7187 27.5828 30.1633 28.0299 29.5083 28.0299H22.4491C20.7033 28.0299 19.0642 27.3483 17.8285 26.1068L7.66115 16.3043C7.14554 15.7863 6.8018 15.0992 6.69687 14.374C6.65707 14.1032 6.69687 13.8305 6.80542 13.587C6.8597 13.4652 7.14011 13.1816 7.35721 12.9726C7.50194 12.8345 7.50013 12.6036 7.35721 12.4655L6.31876 11.4676C6.17765 11.3331 5.96055 11.324 5.80858 11.4458L5.6729 11.5548C5.42866 11.753 5.22242 11.9947 5.07588 12.2728C4.76471 12.8635 4.46077 13.8051 4.58922 14.683C4.76109 15.8626 5.3165 16.975 6.15413 17.8184L7.65934 19.2689H3.35539C2.7059 19.2689 2.17944 19.7978 2.17944 20.4504C2.17944 21.1029 2.7059 21.6318 3.35539 21.6318H10.1107L11.2505 22.7315H9.08675C8.43727 22.7315 7.91081 23.2604 7.91081 23.913C7.91081 24.5655 8.43727 25.0944 9.08675 25.0944H13.4721C13.5427 25.0944 13.6132 25.0872 13.6802 25.0744L14.8398 26.1923H7.81311C7.16363 26.1923 6.63717 26.7212 6.63717 27.3737C6.63717 28.0263 7.16363 28.5552 7.81311 28.5552H17.4233C18.8796 29.6022 20.62 30.1693 22.4473 30.1693H29.5065C31.2958 30.1693 32.7811 28.8315 33.0235 27.0993C33.0344 27.0193 33.0434 26.8666 33.047 26.7212C33.0543 26.5394 32.9095 26.3904 32.7286 26.3904H32.7304Z" fill="white"/>
</svg>
