<svg width="39" height="39" viewBox="0 0 39 39" fill="none" xmlns="http://www.w3.org/2000/svg">
<path d="M18.2436 16.2616C17.5966 16.2616 17.005 16.2552 16.4139 16.2689C16.3307 16.2709 16.2275 16.3521 16.1705 16.4261C15.5994 17.1675 15.0375 17.9159 14.4708 18.6603C14.1388 19.0969 13.6066 19.1825 13.2122 18.8668C12.8125 18.5468 12.7657 18.0094 13.1134 17.588C13.8018 16.753 14.4927 15.9205 15.1899 15.0928C15.4597 14.7728 15.8127 14.6015 16.2353 14.601C17.4198 14.599 18.6054 14.5784 19.789 14.6117C20.2184 14.624 20.663 14.7155 21.069 14.8604C22.1757 15.2548 22.6913 16.4094 22.294 17.5234C21.8105 18.8791 21.3193 20.2324 20.8319 21.5866C20.8183 21.6238 20.809 21.663 20.792 21.7212C21.1523 21.9561 21.5111 22.1906 21.8704 22.4245C22.2926 22.6991 22.7166 22.9707 23.1363 23.2487C23.5993 23.5556 23.8243 23.9956 23.8194 24.5496C23.8053 26.1153 23.7892 27.6815 23.7673 29.2472C23.7576 29.9388 23.2254 30.4669 22.5623 30.4595C21.8938 30.4522 21.3767 29.9192 21.3865 29.2247C21.4055 27.8871 21.4318 26.5499 21.4663 25.2128C21.4712 25.0337 21.4113 24.9583 21.2536 24.8937C20.234 24.4748 19.213 24.0578 18.2032 23.6158C16.7996 23.0006 16.2353 21.6713 16.7611 20.2333C17.1969 19.0416 17.6506 17.8571 18.0961 16.6693C18.1356 16.5636 18.1731 16.4574 18.2436 16.2621V16.2616Z" fill="white"/>
<path d="M16.9643 19.75C17.3333 20.6486 18.8989 20.7503 19.75 21.1429C19.6974 21.227 17.5931 24.5536 17.5478 24.6162C17.1578 25.157 16.7708 25.7003 16.374 26.2362C16.0974 26.6097 15.7167 26.8201 15.2561 26.8451C13.9284 26.917 12.6001 26.9841 11.2714 27.036C10.5504 27.0644 10.0133 26.546 10.0002 25.8481C9.98803 25.1874 10.529 24.6642 11.2374 24.6363C12.3392 24.5922 13.441 24.5418 14.5423 24.4826C14.6246 24.4782 14.7322 24.4018 14.776 24.3275C15.0803 23.8175 15.37 23.2992 15.6656 22.7843C15.7089 22.7089 16.8947 19.8645 16.9643 19.75Z" fill="white"/>
<path d="M24.3691 12.1132C24.3871 13.2663 23.4596 14.2451 22.33 14.2652C21.1041 14.2867 20.1381 13.3637 20.1215 12.1553C20.1059 10.9982 21.0471 10.0184 22.1917 10.0003C23.4016 9.9812 24.3506 10.9013 24.3696 12.1132H24.3691Z" fill="white"/>
<path d="M22.0714 15.5714C22.4697 15.9331 24.018 18.3456 24.4041 18.7156C24.5575 18.8624 24.6875 18.8932 24.8934 18.8198C25.7094 18.5286 26.5327 18.2585 27.3546 17.9849C27.8663 17.815 28.3619 18.047 28.5212 18.5232C28.6838 19.0088 28.4423 19.4923 27.9335 19.67C26.9325 20.0199 25.929 20.3635 24.925 20.7051C24.4202 20.8769 23.9523 20.7996 23.5267 20.4707C23.2249 20.2372 22.9142 20.014 22.6197 19.7718C22.5569 19.7199 20.6562 18.4237 20.6786 18.3571C20.8811 17.7473 20.9262 18.0335 21.1429 17.4285C19.1271 16.6898 20.9263 13.9761 22.0714 15.5714Z" fill="white"/>
</svg>
